# This file uses centimeters as units for non-parametric coordinates.

mtllib Bridge.mtl
g default
v -12.182099 -0.500000 2.667119
v 12.182099 -0.529161 2.667119
v -12.182099 0.500000 2.667119
v 12.182099 0.470839 2.667119
v -12.182099 0.500000 -2.667119
v 12.182099 0.470839 -2.667119
v -12.182099 -0.500000 -2.667119
v 12.182099 -0.529161 -2.667119
v 12.182099 0.470839 -2.143935
v -12.182099 0.500000 -2.143935
v -12.182099 -0.500000 -1.313166
v 12.182099 -0.529161 -1.313166
v 12.182099 0.470839 2.143935
v -12.182099 0.500000 2.143935
v -12.182099 -0.500000 1.313167
v 12.182099 -0.529161 1.313167
v -12.182099 1.272084 2.667119
v 12.182099 1.242923 2.667119
v 12.182099 1.242923 2.143935
v -12.182099 1.272084 2.143935
v 12.182099 1.242923 -2.143935
v -12.182099 1.272084 -2.143935
v 12.182099 1.242923 -2.667119
v -12.182099 1.272084 -2.667119
v 4.060699 0.896882 2.667119
v 4.060699 0.896882 2.143935
v 4.060699 0.124799 2.143935
v 4.060699 0.124799 -2.143935
v 4.060699 0.896882 -2.143935
v 4.060699 0.896882 -2.667119
v 4.060699 0.124799 -2.667119
v 4.060699 -0.875201 -2.667119
v 4.060699 -0.875201 -1.313166
v 4.060699 -0.875201 1.313167
v 4.060699 -0.875201 2.667119
v 4.060699 0.124799 2.667119
v -4.060701 1.007855 2.667119
v -4.060701 1.007855 2.143935
v -4.060701 0.235771 2.143935
v -4.060701 0.235771 -2.143935
v -4.060701 1.007855 -2.143935
v -4.060701 1.007855 -2.667119
v -4.060701 0.235771 -2.667119
v -4.060701 -0.764229 -2.667119
v -4.060701 -0.764229 -1.313166
v -4.060701 -0.764229 1.313167
v -4.060701 -0.764229 2.667119
v -4.060701 0.235771 2.667119
v 6.767833 1.007855 2.143935
v 6.767833 1.007855 2.667119
v 6.767833 0.235771 2.667119
v 6.767833 -0.764229 2.667119
v 6.767833 -0.764229 1.313167
v 6.767833 -0.764229 -1.313166
v 6.767833 -0.764229 -2.667119
v 6.767833 0.235771 -2.667119
v 6.767833 1.007855 -2.667119
v 6.767833 1.007855 -2.143935
v 6.767833 0.235771 -2.143935
v 6.767833 0.235771 2.143935
v 9.474967 1.141459 2.143935
v 9.474967 1.141459 2.667119
v 9.474967 0.369376 2.667119
v 8.574461 -1.804675 2.667119
v 8.574461 -1.804675 1.313167
v 8.574461 -1.804675 -1.313166
v 8.574461 -1.804675 -2.667119
v 9.474967 0.369376 -2.667119
v 9.474967 1.141459 -2.667119
v 9.474967 1.141459 -2.143935
v 9.474967 0.369376 -2.143935
v 9.474967 0.369376 2.143935
v 1.353565 0.854036 2.667119
v 1.353565 0.854036 2.143935
v 1.353565 0.081953 2.143935
v 1.353565 0.081953 -2.143935
v 1.353565 0.854036 -2.143935
v 1.353565 0.854036 -2.667119
v 1.353565 0.081953 -2.667119
v 1.353565 -0.918047 -2.667119
v 1.353565 -0.918047 -1.313166
v 1.353565 -0.918047 1.313167
v 1.353565 -0.918047 2.667119
v 1.353565 0.081953 2.667119
v -1.353567 0.896882 2.667119
v -1.353567 0.896882 2.143935
v -1.353567 0.124799 2.143935
v -1.353567 0.124799 -2.143935
v -1.353567 0.896882 -2.143935
v -1.353567 0.896882 -2.667119
v -1.353567 0.124799 -2.667119
v -1.353567 -0.875201 -2.667119
v -1.353567 -0.875201 -1.313166
v -1.353567 -0.875201 1.313167
v -1.353567 -0.875201 2.667119
v -1.353567 0.124799 2.667119
v -6.767833 1.141459 2.667119
v -6.767833 1.141459 2.143935
v -6.767833 0.369376 2.143935
v -6.767833 0.369376 -2.143935
v -6.767833 1.141459 -2.143935
v -6.767833 1.141459 -2.667119
v -6.767833 0.369376 -2.667119
v -6.767833 -0.630624 -2.667119
v -6.767833 -0.630624 -1.313166
v -6.767833 -0.630624 1.313167
v -6.767833 -0.630624 2.667119
v -6.767833 0.369376 2.667119
v -9.474967 1.242923 2.667119
v -9.474967 1.242923 2.143935
v -9.474967 0.470839 2.143935
v -9.474967 0.470839 -2.143935
v -9.474967 1.242923 -2.143935
v -9.474967 1.242923 -2.667119
v -9.474967 0.470839 -2.667119
v -8.541878 -1.565977 -2.667119
v -8.541878 -1.565977 -1.313166
v -8.541878 -1.565977 1.313167
v -8.541878 -1.565977 2.667119
v -9.474967 0.470839 2.667119
v 9.635922 -4.925063 -1.313166
v 9.635922 -4.925063 -2.667119
v 12.343055 -4.823599 -2.667119
v 12.343055 -4.823599 -1.313166
v 9.635922 -4.925063 1.313167
v 12.343055 -4.823599 1.313167
v 9.635922 -4.925063 2.667119
v 12.343055 -4.823599 2.667119
v -12.225650 -4.543028 1.313167
v -9.518517 -4.572188 1.313167
v -9.518517 -4.572188 2.667119
v -12.225650 -4.543028 2.667119
v -12.225650 -4.543028 -2.667119
v -9.518517 -4.572188 -2.667119
v -9.518517 -4.572188 -1.313166
v -12.225650 -4.543028 -1.313166
vt 0.172013 0.050336
vt 0.172409 0.815638
vt 0.178430 0.885993
vt 0.115080 0.932489
vt 0.124796 0.950909
vt 0.187960 0.906590
vt 0.194519 0.920317
vt 0.131615 0.963466
vt 0.126125 0.523599
vt 0.186701 0.573347
vt 0.176829 0.643271
vt 0.113768 0.544537
vt 0.049552 0.035364
vt 0.082527 0.761161
vt 0.076881 0.795315
vt 0.066407 0.000000
vt 0.772539 0.930838
vt 0.844176 0.414111
vt 0.729784 1.000000
vt 0.760392 0.952016
vt 0.155158 0.085699
vt 0.142549 0.982509
vt 0.144008 0.493457
vt 0.204473 0.539951
vt 0.197237 0.553269
vt 0.136637 0.505735
vt 0.122462 0.154297
vt 0.138238 0.188445
vt 0.005218 0.650844
vt 0.082972 0.657686
vt 0.085806 0.691990
vt 0.005662 0.688699
vt 0.784877 0.528823
vt 0.811480 0.482708
vt 0.794624 0.518072
vt 0.771206 0.536143
vt 0.262331 0.110154
vt 0.215626 0.520507
vt 0.742396 0.982145
vt 0.750001 0.970009
vt 0.761589 0.517624
vt 0.774506 0.509778
vt 0.690215 0.921236
vt 0.682681 0.934524
vt 0.670823 0.953473
vt 0.704261 0.458232
vt 0.692362 0.549670
vt 0.699275 0.563311
vt 0.708935 0.583882
vt 0.718770 0.657038
vt 0.812895 0.711030
vt 0.818339 0.676897
vt 0.906869 0.571572
vt 0.923725 0.536208
vt 0.809653 0.780246
vt 0.956421 0.467611
vt 0.812312 0.814847
vt 0.854570 0.870141
vt 0.700838 0.901177
vt 0.714481 0.828646
vt 0.325783 0.861114
vt 0.401959 0.859233
vt 0.402333 0.874250
vt 0.327955 0.876205
vt 0.474649 0.211352
vt 0.331920 0.898439
vt 0.350501 0.289617
vt 0.411631 0.573995
vt 0.335244 0.590890
vt 0.409540 0.596327
vt 0.332374 0.605880
vt 0.408477 0.611312
vt 0.407623 0.633174
vt 0.329253 0.627940
vt 0.326195 0.656176
vt 0.406787 0.661150
vt 0.322380 0.694755
vt 0.404814 0.698724
vt 0.320260 0.771496
vt 0.402539 0.771700
vt 0.321862 0.810633
vt 0.402479 0.809360
vt 0.323682 0.838957
vt 0.402089 0.837355
vt 0.555439 0.866462
vt 0.627615 0.881905
vt 0.621935 0.896755
vt 0.552424 0.881389
vt 0.559127 0.844438
vt 0.635424 0.859099
vt 0.562868 0.816260
vt 0.647031 0.829386
vt 0.566825 0.777681
vt 0.648923 0.784380
vt 0.568909 0.700814
vt 0.650720 0.697947
vt 0.567139 0.661646
vt 0.650590 0.652683
vt 0.564596 0.633356
vt 0.640910 0.622456
vt 0.634372 0.599316
vt 0.561901 0.611217
vt 0.559567 0.596184
vt 0.629452 0.584224
vt 0.562701 0.390759
vt 0.633468 0.424489
vt 0.547512 0.903442
vt 0.613076 0.917787
vt 0.711653 0.784569
vt 0.713628 0.700434
vt 0.479146 0.860933
vt 0.478009 0.875901
vt 0.545365 0.245058
vt 0.484479 0.575636
vt 0.485162 0.598242
vt 0.485617 0.613245
vt 0.486212 0.635068
vt 0.486744 0.663011
vt 0.486780 0.700684
vt 0.484513 0.773686
vt 0.482454 0.811275
vt 0.480711 0.839159
vt 0.253314 0.872374
vt 0.257916 0.887522
vt 0.333088 0.143879
vt 0.274142 0.554890
vt 0.265671 0.576088
vt 0.260289 0.590997
vt 0.252825 0.613763
vt 0.241978 0.643511
vt 0.240088 0.688153
vt 0.238211 0.774103
vt 0.238246 0.819027
vt 0.247144 0.849277
vt 0.179719 0.687608
vt 0.177642 0.771929
vt 0.016856 0.103961
vt 0.003335 0.758298
vt 0.000000 0.139325
vt 0.105606 0.189661
vt 0.030204 0.846708
vt 0.103560 0.910808
vt 0.124188 0.497173
vt 0.112849 0.515572
vt 0.111942 0.958854
vt 0.101454 0.939899
vt 0.131725 0.202110
vt 0.198132 0.062785
vt 0.208950 0.222149
vt 0.155844 0.475001
vt 0.204731 0.940287
vt 0.191619 0.076450
vt 0.279707 0.255874
vt 0.265357 0.909094
vt 0.421268 0.323347
vt 0.340226 0.568853
vt 0.403383 0.896655
vt 0.403882 0.177622
vt 0.491984 0.357053
vt 0.476279 0.898451
vt 0.757642 0.346237
vt 0.686849 0.312494
vt 0.681378 0.530182
vt 0.621576 0.562815
vt 0.616081 0.278764
vt 0.555652 0.573944
vt 0.861032 0.378747
vt 0.782540 0.558021
vt 0.754517 0.505112
vt 0.775019 0.491957
vt 0.742723 0.486666
vt 0.762526 0.978457
vt 0.828399 0.379962
vt 0.773728 0.959943
vt 0.768505 0.505623
vt 0.834913 0.366298
vt 0.888990 0.784312
vt 0.973277 0.432247
vt 0.892894 0.714614
vt 0.862997 0.623744
vt 0.038695 0.603949
vt 0.000000 0.795533
vt 0.888998 0.821760
vt 0.896540 0.676889
vn 0.000000 0.000000 1.000000
vn 0.000000 0.000000 1.000000
vn 0.000000 0.000000 1.000000
vn 0.000000 0.000000 1.000000
vn 0.010771 0.999942 0.000000
vn 0.024119 0.999709 0.000000
vn 0.024119 0.999709 0.000000
vn 0.010771 0.999942 0.000000
vn -0.000000 0.000000 -1.000000
vn -0.000000 0.000000 -1.000000
vn 0.000000 0.000000 -1.000000
vn 0.000000 0.000000 -1.000000
vn -0.010771 -0.999942 0.000000
vn -0.010771 -0.999942 0.000000
vn -0.010771 -0.999942 0.000000
vn -0.010771 -0.999942 0.000000
vn 0.999480 0.032254 -0.000000
vn 0.999599 0.028335 0.000000
vn 1.000000 -0.000001 0.000000
vn 1.000000 -0.000000 0.000000
vn -0.999968 0.008025 0.000000
vn -0.999958 0.009195 0.000000
vn -1.000000 -0.000001 0.000000
vn -1.000000 -0.000001 0.000000
vn 0.010771 0.999942 0.000000
vn 0.024119 0.999709 0.000000
vn 0.024119 0.999709 0.000000
vn 0.010771 0.999942 0.000000
vn -0.999958 0.009195 0.000000
vn -0.999968 0.008025 0.000000
vn -1.000000 -0.000000 0.000000
vn -1.000000 0.000000 0.000000
vn -0.010771 -0.999942 0.000000
vn -0.010771 -0.999942 0.000000
vn -0.010771 -0.999942 0.000000
vn -0.010771 -0.999942 0.000000
vn 1.000000 -0.000000 0.000000
vn 0.999599 0.028335 0.000000
vn 0.999480 0.032254 0.000000
vn 1.000000 0.000000 0.000000
vn 0.010771 0.999942 0.000000
vn 0.024119 0.999709 0.000000
vn 0.024119 0.999709 0.000000
vn 0.010771 0.999942 0.000000
vn 0.000000 0.000000 1.000000
vn 0.000000 0.000000 1.000000
vn 1.000000 0.000000 0.000000
vn 1.000000 0.000000 0.000000
vn 0.000000 0.000000 -1.000000
vn 0.000000 0.000000 -1.000000
vn 0.000000 0.000000 -1.000000
vn 0.000000 0.000000 -1.000000
vn -1.000000 0.000000 0.000000
vn -1.000000 0.000000 0.000000
vn 0.000000 0.000000 1.000000
vn 0.000000 0.000000 1.000000
vn 0.000000 0.000000 1.000000
vn 0.000000 0.000000 1.000000
vn 1.000000 0.000000 0.000000
vn 1.000000 0.000000 0.000000
vn 0.000000 0.000000 -1.000000
vn 0.000000 0.000000 -1.000000
vn -1.000000 0.000000 0.000000
vn -1.000000 0.000000 0.000000
vn -0.043376 0.999059 0.000000
vn -0.037454 0.999298 0.000000
vn -0.037454 0.999298 0.000000
vn -0.043376 0.999059 0.000000
vn 0.000000 0.000000 -1.000000
vn 0.000000 0.000000 -1.000000
vn 0.000000 0.000000 -1.000000
vn 0.000000 0.000000 -1.000000
vn -0.043376 0.999059 0.000000
vn -0.043376 0.999059 0.000000
vn -0.037454 0.999298 0.000000
vn -0.037454 0.999298 0.000000
vn 0.000000 0.000000 1.000000
vn 0.000000 0.000000 1.000000
vn 0.000000 0.000000 1.000000
vn 0.000000 0.000000 1.000000
vn -0.043376 0.999059 0.000000
vn -0.043376 0.999059 0.000000
vn -0.037454 0.999298 0.000000
vn -0.037454 0.999298 0.000000
vn 0.000000 0.000000 -1.000000
vn 0.000000 0.000000 -1.000000
vn -0.000000 0.000000 -1.000000
vn 0.000000 0.000000 -1.000000
vn 0.000000 0.000000 -1.000000
vn 0.000000 0.000000 -1.000000
vn 0.037454 -0.999298 -0.000000
vn 0.037454 -0.999298 -0.000001
vn 0.037454 -0.999298 -0.000001
vn 0.037454 -0.999298 -0.000000
vn 0.037454 -0.999298 0.000000
vn 0.037454 -0.999298 0.000000
vn 0.037454 -0.999298 0.000001
vn 0.037454 -0.999298 0.000001
vn 0.000000 0.000000 1.000000
vn 0.000000 0.000000 1.000000
vn 0.000000 0.000000 1.000000
vn 0.000000 0.000000 1.000000
vn -0.000000 0.000000 1.000000
vn 0.000000 0.000000 1.000000
vn 0.045127 0.998981 0.000000
vn 0.028398 0.999597 0.000000
vn 0.028398 0.999597 0.000000
vn 0.045127 0.998981 0.000000
vn 0.000000 0.000000 -1.000000
vn 0.000000 0.000000 -1.000000
vn -0.000000 0.000000 -1.000000
vn 0.000000 0.000000 -1.000000
vn 0.045127 0.998981 0.000000
vn 0.045127 0.998981 0.000000
vn 0.028398 0.999597 0.000000
vn 0.028398 0.999597 0.000000
vn -0.000000 0.000000 1.000000
vn -0.000000 0.000000 1.000000
vn 0.000000 0.000000 1.000000
vn 0.000000 0.000000 1.000000
vn 0.045127 0.998981 0.000000
vn 0.045127 0.998981 0.000000
vn 0.028398 0.999597 0.000000
vn 0.028398 0.999597 0.000000
vn 0.000000 0.000000 -1.000000
vn 0.000000 0.000000 -1.000000
vn 0.000000 0.000000 -1.000000
vn -0.000000 0.000000 -1.000000
vn -0.000000 0.000000 -1.000000
vn 0.000000 0.000000 -1.000000
vn -0.045127 -0.998981 0.000000
vn -0.045127 -0.998981 0.000000
vn -0.028398 -0.999597 0.000000
vn -0.028398 -0.999597 0.000000
vn -0.045127 -0.998981 0.000000
vn -0.028398 -0.999597 0.000000
vn -0.045127 -0.998981 0.000000
vn -0.028398 -0.999597 0.000000
vn -0.000000 0.000000 1.000000
vn -0.000000 0.000000 1.000000
vn 0.000000 0.000000 1.000000
vn -0.000000 0.000000 1.000000
vn 0.000000 0.000000 1.000000
vn -0.000000 0.000000 1.000000
vn -0.028398 0.999597 0.000000
vn -0.045127 0.998981 0.000000
vn -0.045127 0.998981 0.000000
vn -0.028398 0.999597 0.000000
vn 0.000000 0.000000 1.000000
vn -0.000000 0.000000 1.000000
vn 0.000000 0.000000 1.000000
vn -0.000000 0.000000 1.000000
vn -0.000000 0.000000 1.000000
vn 0.000000 0.000000 1.000000
vn 0.028398 -0.999597 0.000000
vn 0.028398 -0.999597 0.000000
vn -0.201688 -0.979450 0.000000
vn -0.201688 -0.979450 0.000000
vn 0.028398 -0.999597 0.000000
vn -0.201688 -0.979450 0.000000
vn 0.028398 -0.999597 0.000000
vn -0.201688 -0.979450 0.000000
vn -0.000000 0.000000 -1.000000
vn -0.000000 0.000000 -1.000000
vn -0.000000 0.000000 -1.000000
vn -0.000000 0.000000 -1.000000
vn -0.000000 0.000000 -1.000000
vn 0.000000 0.000000 -1.000000
vn -0.028398 0.999597 0.000000
vn -0.028398 0.999597 0.000000
vn -0.045127 0.998981 0.000000
vn -0.045127 0.998981 0.000000
vn -0.000000 0.000000 1.000000
vn -0.000000 0.000000 1.000000
vn 0.000000 0.000000 1.000000
vn 0.000000 0.000000 1.000000
vn -0.028398 0.999597 0.000000
vn -0.028398 0.999597 0.000000
vn -0.045127 0.998981 0.000000
vn -0.045127 0.998981 0.000000
vn 0.000000 0.000000 -1.000000
vn 0.000000 0.000000 -1.000000
vn -0.000000 0.000000 -1.000000
vn -0.000000 0.000000 -1.000000
vn -0.499060 -0.866567 0.000000
vn -0.499060 -0.866567 0.000000
vn -0.499060 -0.866567 0.000000
vn -0.499060 -0.866567 0.000000
vn -0.000000 1.000000 0.000000
vn -0.000000 1.000000 0.000000
vn -0.000000 0.000000 -1.000000
vn -0.000000 0.000000 -1.000000
vn -0.000000 1.000000 0.000000
vn -0.000000 1.000000 0.000000
vn 0.000000 0.000000 1.000000
vn 0.000000 0.000000 1.000000
vn 0.000000 1.000000 0.000000
vn 0.000000 1.000000 0.000000
vn -0.000000 0.000000 -1.000000
vn -0.000000 0.000000 -1.000000
vn 0.000000 0.000000 -1.000000
vn 0.000000 -1.000000 0.000000
vn 0.000000 -1.000000 0.000000
vn 0.000000 -1.000000 0.000000
vn 0.000000 -1.000000 0.000000
vn -0.000000 0.000000 1.000000
vn 0.000000 0.000000 1.000000
vn -0.000000 0.000000 1.000000
vn 0.043376 0.999059 0.000000
vn 0.043376 0.999059 0.000000
vn -0.000000 0.000000 -1.000000
vn -0.000000 0.000000 -1.000000
vn 0.043376 0.999059 0.000000
vn 0.043376 0.999059 0.000000
vn -0.000000 0.000000 1.000000
vn -0.000000 0.000000 1.000000
vn 0.043376 0.999059 0.000000
vn 0.043376 0.999059 0.000000
vn 0.000000 0.000000 -1.000000
vn 0.000000 0.000000 -1.000000
vn 0.000000 0.000000 -1.000000
vn 0.176118 -0.984369 0.000000
vn 0.176118 -0.984369 0.000000
vn 0.176118 -0.984369 0.000000
vn 0.176118 -0.984369 0.000000
vn 0.000000 0.000000 1.000000
vn 0.000000 0.000000 1.000000
vn 0.000000 0.000000 1.000000
vn 0.466389 -0.884580 0.000000
vn 0.466389 -0.884580 0.000000
vn 0.466389 -0.884580 0.000000
vn 0.466389 -0.884580 0.000000
vn -0.946724 -0.322047 -0.000000
vn -0.946724 -0.322047 -0.000000
vn -0.946724 -0.322047 -0.000000
vn -0.946724 -0.322047 -0.000000
vn 0.000000 0.000000 -1.000000
vn 0.000000 0.000000 -1.000000
vn 0.999298 0.037454 0.000000
vn 0.999298 0.037454 0.000000
vn -0.946724 -0.322047 0.000000
vn -0.946724 -0.322047 0.000000
vn 0.999298 0.037454 0.000000
vn -0.946724 -0.322047 0.000000
vn -0.946724 -0.322047 0.000000
vn 0.999298 0.037454 -0.000000
vn 0.000000 0.000000 1.000000
vn 0.000000 0.000000 1.000000
vn 0.951069 -0.308978 0.000000
vn 0.951069 -0.308978 0.000000
vn 0.951069 -0.308978 0.000000
vn 0.951069 -0.308978 0.000000
vn 0.000000 0.000000 1.000000
vn 0.000000 0.000000 1.000000
vn -0.999942 0.010771 0.000000
vn -0.999942 0.010771 0.000000
vn 0.000000 0.000000 -1.000000
vn 0.000000 0.000000 -1.000000
vn 0.951069 -0.308978 0.000000
vn 0.951069 -0.308978 0.000000
vn 0.951069 -0.308978 0.000000
vn 0.951069 -0.308978 0.000000
vn -0.999942 0.010771 0.000000
vn -0.999942 0.010771 0.000000
s 1
g pCube1
usemtl lambert2SG
f 1/142/1 119/2/2 120/3/3 3/4/4
s 2
f 17/5/5 109/6/6 110/7/7 20/8/8
s 3
f 5/9/9 115/10/10 116/11/11 7/12/12
s 4
f 129/138/13 130/14/14 131/15/15 132/182/16
s 5
f 2/167/17 16/18/18 13/173/19 4/176/20
s 6
f 15/21/21 1/1/22 3/148/23 14/152/24
s 7
f 22/23/25 113/24/26 114/25/27 24/26/28
s 6
f 7/140/29 11/27/30 10/28/31 5/147/32
s 4
f 133/29/33 134/30/34 135/31/35 136/32/36
s 5
f 9/170/37 12/34/38 8/35/39 6/175/40
s 9
f 14/152/41 111/37/42 112/149/43 10/28/44
s 6
f 11/27/30 15/21/21 14/152/24 10/28/31
s 4
f 136/32/36 135/31/35 130/14/14 129/138/13
s 5
f 13/173/19 16/18/18 12/34/38 9/170/37
s 1
f 3/4/4 120/3/3 109/6/45 17/5/46
s 5
f 4/20/20 13/174/19 19/172/47 18/40/48
s 10
f 111/151/49 14/22/50 20/8/51 110/7/52
s 6
f 14/146/24 3/4/23 17/5/53 20/145/54
s 11
f 10/150/55 112/38/56 113/24/57 22/23/58
s 5
f 9/33/37 6/36/40 23/41/59 21/42/60
s 3
f 115/10/10 5/9/9 24/26/61 114/25/62
s 6
f 5/9/32 10/144/31 22/143/63 24/26/64
s 2
f 62/43/65 18/40/66 19/39/67 61/44/68
s 10
f 13/19/69 72/45/70 61/44/71 19/39/72
s 9
f 71/46/73 72/161/74 13/173/75 9/170/76
s 11
f 70/47/77 71/163/78 9/171/79 21/169/80
s 7
f 69/48/81 70/47/82 21/169/83 23/41/84
s 3
f 6/36/85 68/49/86 69/48/87 23/41/88
f 67/50/89 68/49/86 6/36/85 8/168/90
s 18
f 121/51/91 122/52/92 123/184/93 124/179/94
f 125/55/95 121/51/91 124/179/94 126/177/96
f 127/57/97 125/55/95 126/177/96 128/183/98
s 1
f 63/59/99 64/60/100 2/17/101 4/20/102
f 62/43/103 63/59/99 4/20/102 18/40/104
s 2
f 37/61/105 85/62/106 86/63/107 38/64/108
s 10
f 87/157/109 39/66/110 38/64/111 86/63/112
s 9
f 40/67/113 39/158/114 87/65/115 88/155/116
s 11
f 41/69/117 40/156/118 88/68/119 89/70/120
s 7
f 42/71/121 41/69/122 89/70/123 90/72/124
s 3
f 91/73/125 43/74/126 42/71/127 90/72/128
f 44/75/129 43/74/126 91/73/125 92/76/130
s 26
f 45/77/131 44/75/132 92/76/133 93/78/134
f 46/79/135 45/77/131 93/78/134 94/80/136
f 47/81/137 46/79/135 94/80/136 95/82/138
s 1
f 48/83/139 47/81/140 95/82/141 96/84/142
f 37/61/143 48/83/139 96/84/142 85/62/144
s 2
f 25/85/145 50/86/146 49/87/147 26/88/148
s 1
f 25/85/149 36/89/150 51/90/151 50/86/152
f 36/89/150 35/91/153 52/92/154 51/90/151
s 26
f 35/91/155 34/93/156 53/94/157 52/92/158
f 34/93/156 33/95/159 54/96/160 53/94/157
f 33/95/159 32/97/161 55/98/162 54/96/160
s 3
f 32/97/163 31/99/164 56/100/165 55/98/166
f 57/101/167 56/100/165 31/99/164 30/102/168
s 7
f 30/102/169 29/103/170 58/104/171 57/101/172
s 11
f 29/103/173 28/166/174 59/164/175 58/104/176
s 9
f 28/105/177 27/165/178 60/162/179 59/106/180
s 10
f 49/87/181 60/108/182 27/107/183 26/88/184
s 2
f 50/86/146 62/43/65 61/44/68 49/87/147
s 1
f 50/86/152 51/90/151 63/59/99 62/43/103
f 51/90/151 52/92/154 64/60/100 63/59/99
s 26
f 52/92/158 53/94/157 65/109/185 64/60/186
f 53/94/157 54/96/160 66/110/187 65/109/185
f 54/96/160 55/98/162 67/50/188 66/110/187
s 3
f 55/98/166 56/100/165 68/49/86 67/50/89
f 69/48/87 68/49/86 56/100/165 57/101/167
s 7
f 57/101/172 58/104/171 70/47/82 69/48/81
s 11
f 58/104/176 59/164/175 71/163/78 70/47/77
s 9
f 59/106/180 60/162/179 72/161/74 71/46/73
s 10
f 61/44/71 72/45/70 60/108/182 49/87/181
s 2
f 73/111/189 25/85/145 26/88/148 74/112/190
s 10
f 27/107/183 75/160/191 74/112/192 26/88/184
s 9
f 76/159/193 75/113/194 27/165/178 28/105/177
s 11
f 77/115/195 76/114/196 28/166/174 29/103/173
s 7
f 78/116/197 77/115/198 29/103/170 30/102/169
s 3
f 31/99/164 79/117/199 78/116/200 30/102/168
f 80/118/201 79/117/199 31/99/164 32/97/163
s 26
f 81/119/202 80/118/203 32/97/161 33/95/159
f 82/120/204 81/119/202 33/95/159 34/93/156
f 83/121/205 82/120/204 34/93/156 35/91/155
s 1
f 84/122/206 83/121/207 35/91/153 36/89/150
f 73/111/208 84/122/206 36/89/150 25/85/149
s 2
f 85/62/106 73/111/189 74/112/190 86/63/107
s 10
f 75/160/191 87/157/109 86/63/112 74/112/192
s 9
f 88/155/116 87/65/115 75/113/194 76/159/193
s 11
f 89/70/120 88/68/119 76/114/196 77/115/195
s 7
f 90/72/124 89/70/123 77/115/198 78/116/197
s 3
f 79/117/199 91/73/125 90/72/128 78/116/200
f 92/76/130 91/73/125 79/117/199 80/118/201
s 26
f 93/78/134 92/76/133 80/118/203 81/119/202
f 94/80/136 93/78/134 81/119/202 82/120/204
f 95/82/138 94/80/136 82/120/204 83/121/205
s 1
f 96/84/142 95/82/141 83/121/207 84/122/206
f 85/62/144 96/84/142 84/122/206 73/111/208
s 2
f 97/123/209 37/61/105 38/64/108 98/124/210
s 10
f 39/66/110 99/154/211 98/124/212 38/64/111
s 9
f 100/153/213 99/125/214 39/158/114 40/67/113
s 11
f 101/127/215 100/126/216 40/156/118 41/69/117
s 7
f 102/128/217 101/127/218 41/69/122 42/71/121
s 3
f 43/74/126 103/129/219 102/128/220 42/71/127
f 104/130/221 103/129/219 43/74/126 44/75/129
s 26
f 105/131/222 104/130/223 44/75/132 45/77/131
f 106/132/224 105/131/222 45/77/131 46/79/135
f 107/133/225 106/132/224 46/79/135 47/81/137
s 1
f 108/134/226 107/133/227 47/81/140 48/83/139
f 97/123/228 108/134/226 48/83/139 37/61/143
s 2
f 109/6/6 97/123/209 98/124/210 110/7/7
s 10
f 99/154/211 111/151/49 110/7/52 98/124/212
s 9
f 112/149/43 111/37/42 99/125/214 100/153/213
s 11
f 113/24/57 112/38/56 100/126/216 101/127/215
s 7
f 114/25/27 113/24/26 101/127/218 102/128/217
s 3
f 103/129/219 115/10/10 114/25/62 102/128/220
f 116/11/11 115/10/10 103/129/219 104/130/221
s 26
f 117/135/229 116/11/230 104/130/223 105/131/222
f 118/136/231 117/135/229 105/131/222 106/132/224
f 119/2/232 118/136/231 106/132/224 107/133/225
s 1
f 120/3/3 119/2/2 107/133/227 108/134/226
f 109/6/45 120/3/3 108/134/226 97/123/228
s 34
f 66/110/233 67/50/234 122/52/235 121/51/236
s 3
f 67/50/89 8/168/90 123/180/237 122/52/238
s 5
f 8/35/39 12/34/38 124/54/239 123/53/240
s 34
f 65/109/241 66/110/233 121/51/236 125/55/242
s 5
f 12/34/38 16/18/18 126/56/243 124/54/239
s 34
f 64/60/244 65/109/241 125/55/242 127/57/245
s 5
f 16/18/18 2/167/17 128/178/246 126/56/243
s 1
f 2/17/101 64/60/100 127/57/247 128/58/248
s 35
f 118/136/249 119/2/250 131/15/251 130/14/252
s 1
f 119/2/2 1/142/1 132/141/253 131/15/254
s 6
f 1/1/22 15/21/21 129/13/255 132/16/256
s 3
f 7/12/12 116/11/11 134/30/257 133/181/258
s 35
f 116/11/259 117/135/260 135/31/261 134/30/262
s 6
f 11/27/30 7/140/29 133/139/263 136/137/264
s 35
f 117/135/260 118/136/249 130/14/252 135/31/261
s 6
f 15/21/21 11/27/30 136/137/264 129/13/255
