# This file uses centimeters as units for non-parametric coordinates.

mtllib Tourch.mtl
g default
v 0.632643 5.805680 -0.632643
v 0.000000 5.805680 -0.894692
v -0.632643 5.805680 -0.632643
v -0.894692 5.805680 0.000000
v -0.632643 5.805680 0.632643
v 0.000000 5.805680 0.894692
v 0.632643 5.805680 0.632643
v 0.894692 5.805680 0.000000
v 1.168971 6.037241 -1.168971
v 0.000000 6.037241 -1.653174
v -1.168971 6.037241 -1.168971
v -1.653174 6.037241 0.000000
v -1.168971 6.037241 1.168971
v 0.000000 6.037241 1.653174
v 1.168971 6.037241 1.168971
v 1.653175 6.037241 0.000000
v 1.527334 6.383796 -1.527334
v 0.000000 6.383796 -2.159976
v -1.527334 6.383796 -1.527334
v -2.159976 6.383796 0.000000
v -1.527334 6.383796 1.527334
v 0.000000 6.383796 2.159977
v 1.527334 6.383796 1.527334
v 2.159977 6.383796 0.000000
v 1.653174 6.792585 -1.653174
v 0.000000 6.792585 -2.337942
v -1.653174 6.792585 -1.653174
v -2.337942 6.792585 0.000000
v -1.653174 6.792585 1.653174
v 0.000000 6.792585 2.337942
v 1.653175 6.792585 1.653175
v 2.337942 6.792585 0.000000
v 0.000000 5.724367 0.000000
v 1.396514 6.950604 -1.396514
v -0.000000 6.950604 -1.974970
v -1.396514 6.950604 -1.396514
v -1.974970 6.950604 0.000000
v -1.396514 6.950604 1.396514
v 0.000000 6.950604 1.974970
v 1.396515 6.950604 1.396515
v 1.974970 6.950604 0.000000
v 1.263266 6.517749 -1.263266
v -0.000000 6.517749 -1.786528
v -1.263266 6.517749 -1.263266
v -1.786528 6.517749 0.000000
v -1.263266 6.517749 1.263266
v 0.000000 6.517749 1.786528
v 1.263267 6.517749 1.263266
v 1.786529 6.517749 0.000000
v 0.000000 6.496604 0.000000
vt 0.649628 0.683690
vt 0.676641 0.716469
vt 0.653961 0.760231
vt 0.602547 0.698602
vt 0.718995 0.720493
vt 0.733936 0.767462
vt 0.751791 0.693397
vt 0.795570 0.716061
vt 0.755823 0.651065
vt 0.802821 0.636174
vt 0.728740 0.618286
vt 0.751474 0.574548
vt 0.686399 0.614254
vt 0.671554 0.567262
vt 0.653598 0.641342
vt 0.609846 0.618653
vt 0.636623 0.794840
vt 0.565739 0.710762
vt 0.746165 0.804192
vt 0.830184 0.733413
vt 0.839585 0.624014
vt 0.768914 0.539980
vt 0.659465 0.530487
vt 0.575290 0.601221
vt 0.624351 0.820386
vt 0.538944 0.720064
vt 0.755552 0.830939
vt 0.855728 0.745717
vt 0.866365 0.614696
vt 0.781301 0.514477
vt 0.650218 0.503693
vt 0.549807 0.588824
vt 0.702708 0.667368
vt 0.614318 0.836407
vt 0.520515 0.724238
vt 0.759796 0.849369
vt 0.871756 0.755779
vt 0.884828 0.610520
vt 0.791439 0.498496
vt 0.646118 0.485227
vt 0.533860 0.578662
vt 0.600363 0.861406
vt 0.644855 0.071332
vt 0.573523 0.222326
vt 0.896754 0.769784
vt 0.422529 0.150994
vt 0.805573 0.473569
vt 0.493861 0.000000
vt 0.508975 0.564485
vt 0.533692 0.111163
vt 0.584131 0.004394
vt 0.492950 0.731928
vt 0.638539 0.457601
vt 0.426923 0.060724
vt 0.912431 0.602816
vt 0.483253 0.217932
vt 0.767615 0.876925
vt 0.640461 0.161602
vn 0.179373 -0.967290 -0.179373
vn 0.000000 -0.967290 -0.253672
vn -0.000000 -0.880931 -0.473245
vn 0.334635 -0.880931 -0.334635
vn -0.179373 -0.967291 -0.179373
vn -0.334635 -0.880931 -0.334635
vn -0.253672 -0.967290 0.000000
vn -0.473245 -0.880931 0.000000
vn -0.179373 -0.967290 0.179373
vn -0.334635 -0.880931 0.334635
vn 0.000000 -0.967290 0.253672
vn -0.000000 -0.880931 0.473245
vn 0.179373 -0.967290 0.179373
vn 0.334635 -0.880931 0.334635
vn 0.253672 -0.967290 -0.000000
vn 0.473245 -0.880931 0.000000
vn 0.000000 -0.618477 -0.785803
vn 0.555647 -0.618477 -0.555646
vn -0.555647 -0.618477 -0.555646
vn -0.785803 -0.618477 0.000000
vn -0.555647 -0.618477 0.555646
vn -0.000000 -0.618477 0.785803
vn 0.555646 -0.618477 0.555646
vn 0.785803 -0.618477 -0.000000
vn 0.000000 -0.399162 -0.916880
vn 0.648332 -0.399162 -0.648332
vn -0.648332 -0.399162 -0.648332
vn -0.916880 -0.399162 0.000000
vn -0.648332 -0.399162 0.648332
vn -0.000000 -0.399162 0.916880
vn 0.648333 -0.399162 0.648332
vn 0.916880 -0.399162 -0.000000
vn 0.000000 -1.000000 0.000000
vn 0.282250 0.916880 -0.282250
vn 0.000000 0.916880 -0.399162
vn 0.000000 0.916880 -0.399162
vn 0.282250 0.916880 -0.282250
vn -0.282250 0.916881 -0.282250
vn -0.282250 0.916881 -0.282250
vn -0.399162 0.916881 -0.000000
vn -0.399162 0.916881 -0.000000
vn -0.282250 0.916881 0.282250
vn -0.282250 0.916881 0.282250
vn -0.000000 0.916881 0.399162
vn -0.000000 0.916881 0.399162
vn 0.282250 0.916881 0.282250
vn 0.282250 0.916880 0.282250
vn 0.399162 0.916881 -0.000000
vn 0.399162 0.916881 -0.000000
vn -0.648333 0.399161 0.648332
vn 0.000000 0.399162 0.916881
vn 0.000000 0.399162 0.916880
vn -0.648333 0.399161 0.648332
vn 0.648333 0.399161 0.648332
vn 0.648333 0.399161 0.648332
vn 0.916881 0.399161 -0.000000
vn 0.916881 0.399161 -0.000000
vn 0.648333 0.399161 -0.648332
vn 0.648333 0.399161 -0.648332
vn 0.000000 0.399161 -0.916881
vn -0.000000 0.399161 -0.916881
vn -0.648333 0.399161 -0.648333
vn -0.648333 0.399161 -0.648333
vn -0.916881 0.399161 0.000000
vn -0.916881 0.399161 0.000000
vn -0.000000 1.000000 -0.000000
vn -0.005918 0.999965 0.005918
vn 0.000000 0.999930 0.011835
vn 0.005918 0.999965 0.005918
vn 0.011835 0.999930 0.000000
vn 0.005918 0.999965 -0.005918
vn 0.000000 0.999930 -0.011835
vn -0.005918 0.999965 -0.005918
vn -0.011835 0.999930 0.000000
s 1
g Tong Tourch
usemtl lambert3SG
f 1/1/1 2/2/2 10/3/3 9/4/4
f 2/2/2 3/5/5 11/6/6 10/3/3
f 3/5/5 4/7/7 12/8/8 11/6/6
f 4/7/7 5/9/9 13/10/10 12/8/8
f 5/9/9 6/11/11 14/12/12 13/10/10
f 6/11/11 7/13/13 15/14/14 14/12/12
f 7/13/13 8/15/15 16/16/16 15/14/14
f 8/15/15 1/1/1 9/4/4 16/16/16
f 9/4/4 10/3/3 18/17/17 17/18/18
f 10/3/3 11/6/6 19/19/19 18/17/17
f 11/6/6 12/8/8 20/20/20 19/19/19
f 12/8/8 13/10/10 21/21/21 20/20/20
f 13/10/10 14/12/12 22/22/22 21/21/21
f 14/12/12 15/14/14 23/23/23 22/22/22
f 15/14/14 16/16/16 24/24/24 23/23/23
f 16/16/16 9/4/4 17/18/18 24/24/24
f 17/18/18 18/17/17 26/25/25 25/26/26
f 18/17/17 19/19/19 27/27/27 26/25/25
f 19/19/19 20/20/20 28/28/28 27/27/27
f 20/20/20 21/21/21 29/29/29 28/28/28
f 21/21/21 22/22/22 30/30/30 29/29/29
f 22/22/22 23/23/23 31/31/31 30/30/30
f 23/23/23 24/24/24 32/32/32 31/31/31
f 24/24/24 17/18/18 25/26/26 32/32/32
f 2/2/2 1/1/1 33/33/33
f 3/5/5 2/2/2 33/33/33
f 4/7/7 3/5/5 33/33/33
f 5/9/9 4/7/7 33/33/33
f 6/11/11 5/9/9 33/33/33
f 7/13/13 6/11/11 33/33/33
f 8/15/15 7/13/13 33/33/33
f 1/1/1 8/15/15 33/33/33
s 2
f 25/26/34 26/25/35 35/34/36 34/35/37
f 26/25/35 27/27/38 36/36/39 35/34/36
f 27/27/38 28/28/40 37/37/41 36/36/39
f 28/28/40 29/29/42 38/38/43 37/37/41
f 29/29/42 30/30/44 39/39/45 38/38/43
f 30/30/44 31/31/46 40/40/47 39/39/45
f 31/31/46 32/32/48 41/41/49 40/40/47
f 32/32/48 25/26/34 34/35/37 41/41/49
s 3
f 34/35/50 35/34/51 43/42/52 42/52/53
f 35/34/51 36/36/54 44/57/55 43/42/52
f 36/36/54 37/37/56 45/45/57 44/57/55
f 37/37/56 38/38/58 46/55/59 45/45/57
f 38/38/58 39/39/60 47/47/61 46/55/59
f 39/39/60 40/40/62 48/53/63 47/47/61
f 40/40/62 41/41/64 49/49/65 48/53/63
f 41/41/64 34/35/50 42/52/53 49/49/65
s 4
f 50/50/66 42/43/67 43/58/68 44/44/69
f 50/50/66 44/44/69 45/56/70 46/46/71
f 50/50/66 46/46/71 47/54/72 48/48/73
f 50/50/66 48/48/73 49/51/74 42/43/67
g default
v -1.447741 5.597243 1.303547
v -1.296215 5.588849 1.448985
v -1.284153 5.738368 1.284153
v 1.284153 5.738368 1.284153
v 1.303547 5.597243 1.447741
v 1.447741 5.597243 1.303547
v -1.448985 5.588849 -1.296215
v -1.284153 5.738368 -1.284153
v -1.296215 5.588849 -1.448985
v 1.296215 5.588849 -1.448985
v 1.284153 5.738368 -1.284153
v 1.448985 5.588849 -1.296215
v -2.153321 -0.193269 2.306091
v -2.306091 -0.193269 2.153321
v 2.306091 -0.193269 2.153320
v 2.153321 -0.193269 2.306090
v -2.306091 -0.193269 -2.153321
v -2.153321 -0.193269 -2.306091
v 2.153321 -0.193269 -2.306090
v 2.306091 -0.193269 -2.153320
vt 0.430973 0.479381
vt 0.599519 0.455552
vt 0.420820 0.478763
vt 0.050911 0.599304
vt 0.414923 0.466455
vt 0.403384 0.281868
vt 0.391604 0.298425
vt 0.000000 0.297323
vt 0.608999 0.456492
vt 1.000000 0.455984
vt 0.999509 0.470260
vt 0.594803 0.441630
vt 0.576542 0.276689
vt 0.587144 0.258893
vt 0.964838 0.159351
vt 0.046224 0.585496
vt 0.429502 0.465117
vt 0.405578 0.296040
vt 0.609490 0.442215
vt 0.590772 0.272710
vt 0.968466 0.173168
vt 0.393014 0.285327
vt 0.000406 0.282736
vt 0.049074 0.000000
vt 0.421335 0.116896
vt 0.499367 0.630538
vt 0.182071 0.854241
vt 0.577681 0.262036
vn -0.662739 0.748850 -0.001057
vn -0.662739 0.748850 -0.001057
vn -0.662739 0.748850 -0.001057
vn -0.662739 0.748850 -0.001057
vn -0.681255 0.209659 0.701380
vn -0.681164 0.210126 0.701329
vn -0.682226 0.204656 0.701915
vn -0.682226 0.204656 0.701915
vn -0.001057 0.748850 0.662738
vn -0.001057 0.748850 0.662738
vn -0.001057 0.748850 0.662738
vn -0.001057 0.748850 0.662738
vn 0.662739 0.748850 -0.001057
vn 0.662739 0.748850 -0.001057
vn 0.662739 0.748850 -0.001057
vn 0.662739 0.748850 -0.001057
vn 0.692209 0.204192 0.692209
vn 0.692209 0.204192 0.692209
vn 0.692209 0.204192 0.692209
vn 0.692209 0.204192 0.692209
vn -0.691298 0.210273 -0.691298
vn -0.691298 0.210273 -0.691298
vn -0.692064 0.205174 -0.692063
vn -0.692064 0.205174 -0.692063
vn 0.000000 0.740673 -0.671865
vn 0.000000 0.740673 -0.671865
vn 0.000000 0.740673 -0.671865
vn 0.000000 0.740673 -0.671865
vn 0.691298 0.210272 -0.691297
vn 0.691298 0.210272 -0.691297
vn 0.692064 0.205174 -0.692063
vn 0.692064 0.205174 -0.692063
vn 0.000000 0.146632 0.989191
vn 0.000000 0.146632 0.989191
vn 0.000000 0.146632 0.989191
vn 0.000000 0.146632 0.989191
vn 0.000000 1.000000 0.000000
vn 0.000000 1.000000 0.000000
vn 0.000000 1.000000 0.000000
vn 0.000000 1.000000 0.000000
vn 0.000000 0.146632 -0.989191
vn 0.000000 0.146632 -0.989191
vn 0.000000 0.146632 -0.989191
vn 0.000000 0.146632 -0.989191
vn 0.989191 0.146632 -0.000000
vn 0.989191 0.146632 -0.000000
vn 0.989191 0.146632 -0.000000
vn 0.989191 0.146632 -0.000000
vn -0.989191 0.146632 -0.000000
vn -0.989191 0.146632 -0.000000
vn -0.989191 0.146632 -0.000000
vn -0.989191 0.146632 -0.000000
vn -0.501733 0.658653 0.560750
vn 0.521204 0.675790 0.521205
vn 0.521204 0.675790 0.521204
vn 0.521204 0.675790 0.521205
vn -0.542352 0.641647 -0.542350
vn 0.542352 0.641647 -0.542350
s off
g Tourch Base
usemtl lambert3SG
f 51/59/75 53/75/76 58/70/77 57/60/78
s 1
f 52/63/79 51/61/80 64/62/81 63/74/82
s off
f 53/75/83 52/63/84 55/65/85 54/76/86
f 54/76/87 56/64/88 62/86/89 61/71/90
f 56/80/91 55/65/92 66/66/93 65/81/94
s 2
f 57/67/95 59/77/96 68/68/97 67/69/98
s off
f 59/77/99 58/70/100 61/71/101 60/78/102
s 3
f 60/78/103 62/72/104 70/73/105 69/79/106
s off
f 52/63/107 63/74/108 66/66/109 55/65/110
f 53/75/111 54/76/112 61/71/113 58/70/114
f 59/77/115 60/78/116 69/79/117 68/68/118
f 56/80/119 65/81/120 70/82/121 62/83/122
f 57/84/123 67/85/124 64/62/125 51/61/126
s 1
f 51/61/80 52/63/79 53/75/127
s off
f 54/76/128 55/65/129 56/80/130
s 2
f 57/60/95 58/70/131 59/77/96
s 3
f 60/78/103 61/71/132 62/86/104
