# This file uses centimeters as units for non-parametric coordinates.

mtllib ChityCoin.mtl
g default
v 0.951057 0.309017 -0.079751
v 0.809018 0.587786 -0.079751
v 0.587786 0.809017 -0.051296
v 0.309017 0.951057 -0.051296
v 0.000000 1.000000 -0.079751
v -0.309017 0.951057 -0.079751
v -0.587785 0.809017 -0.047300
v -0.809017 0.587785 -0.047300
v -0.951057 0.309017 -0.047300
v -1.000000 -0.000000 -0.079751
v -0.951057 -0.309017 -0.052118
v -0.809017 -0.587785 -0.052118
v -0.587785 -0.809017 -0.079751
v -0.309017 -0.951057 -0.064352
v -0.000000 -1.000000 -0.044099
v 0.309017 -0.951057 -0.044099
v 0.587785 -0.809017 -0.044099
v 0.809017 -0.587785 -0.064352
v 0.951057 -0.309017 -0.079751
v 1.000000 -0.000000 -0.079751
v 0.951057 0.309017 0.079751
v 0.809018 0.587786 0.079751
v 0.587786 0.809017 0.051296
v 0.309017 0.951057 0.051296
v 0.000000 1.000000 0.079751
v -0.309017 0.951057 0.079751
v -0.587785 0.809017 0.047300
v -0.809017 0.587785 0.047300
v -0.951057 0.309017 0.047300
v -1.000000 0.000000 0.079751
v -0.951057 -0.309017 0.052118
v -0.809017 -0.587785 0.052118
v -0.587785 -0.809017 0.079751
v -0.309017 -0.951057 0.064352
v -0.000000 -1.000000 0.044099
v 0.309017 -0.951057 0.044099
v 0.587785 -0.809017 0.044099
v 0.809017 -0.587785 0.064352
v 0.951057 -0.309017 0.079751
v 1.000000 0.000000 0.079751
v 0.740249 0.240522 -0.079751
v 0.629694 0.457499 -0.079751
v 0.457499 0.629694 -0.079751
v 0.240522 0.740249 -0.079751
v 0.000000 0.778344 -0.079751
v -0.240522 0.740249 -0.079751
v -0.457499 0.629694 -0.079751
v -0.629694 0.457499 -0.079751
v -0.740249 0.240522 -0.079751
v -0.778344 0.000000 -0.079751
v -0.740249 -0.240521 -0.079751
v -0.629694 -0.457499 -0.079751
v -0.457499 -0.629693 -0.079751
v -0.240522 -0.740249 -0.079751
v -0.000000 -0.778344 -0.079751
v 0.240521 -0.740249 -0.079751
v 0.457499 -0.629693 -0.079751
v 0.629693 -0.457499 -0.079751
v 0.740249 -0.240521 -0.079751
v 0.778344 0.000000 -0.079751
v 0.740249 0.240522 0.079751
v 0.629694 0.457499 0.079751
v 0.457499 0.629694 0.079751
v 0.240522 0.740249 0.079751
v 0.000000 0.778344 0.079751
v -0.240522 0.740249 0.079751
v -0.457499 0.629694 0.079751
v -0.629694 0.457499 0.079751
v -0.740249 0.240522 0.079751
v -0.778344 0.000000 0.079751
v -0.740249 -0.240521 0.079751
v -0.629694 -0.457499 0.079751
v -0.457499 -0.629693 0.079751
v -0.240522 -0.740249 0.079751
v -0.000000 -0.778344 0.079751
v 0.240521 -0.740249 0.079751
v 0.457499 -0.629693 0.079751
v 0.629693 -0.457499 0.079751
v 0.740249 -0.240521 0.079751
v 0.778344 0.000000 0.079751
v 0.189261 0.061495 -0.079751
v 0.160995 0.116970 -0.079751
v 0.116969 0.160995 -0.079751
v 0.061494 0.189261 -0.079751
v -0.000000 0.199001 -0.079751
v -0.061495 0.189261 -0.079751
v -0.116970 0.160995 -0.079751
v -0.160995 0.116970 -0.079751
v -0.189261 0.061495 -0.079751
v -0.199000 0.000000 -0.079751
v -0.189261 -0.061494 -0.079751
v -0.160995 -0.116969 -0.079751
v -0.116970 -0.160994 -0.079751
v -0.061495 -0.189260 -0.079751
v -0.000000 -0.199000 -0.079751
v 0.061494 -0.189260 -0.079751
v 0.116969 -0.160994 -0.079751
v 0.160995 -0.116969 -0.079751
v 0.189260 -0.061494 -0.079751
v 0.199000 0.000000 -0.079751
v 0.189261 0.061495 0.079751
v 0.160995 0.116970 0.079751
v 0.116969 0.160995 0.079751
v 0.061494 0.189261 0.079751
v -0.000000 0.199001 0.079751
v -0.061495 0.189261 0.079751
v -0.116970 0.160995 0.079751
v -0.160995 0.116970 0.079751
v -0.189261 0.061495 0.079751
v -0.199000 0.000000 0.079751
v -0.189261 -0.061494 0.079751
v -0.160995 -0.116969 0.079751
v -0.116970 -0.160994 0.079751
v -0.061495 -0.189260 0.079751
v -0.000000 -0.199000 0.079751
v 0.061494 -0.189260 0.079751
v 0.116969 -0.160994 0.079751
v 0.160995 -0.116969 0.079751
v 0.189260 -0.061494 0.079751
v 0.199000 0.000000 0.079751
v -0.000000 0.000000 -0.079751
v -0.000000 0.000000 0.079751
vt 0.338907 0.507418
vt 0.273116 0.544005
vt 0.662718 0.246022
vt 0.648679 0.172055
vt 0.221326 0.599029
vt 0.653636 0.321043
vt 0.189635 0.667276
vt 0.621506 0.389087
vt 0.181036 0.742346
vt 0.569368 0.443776
vt 0.195531 0.816204
vt 0.503359 0.479939
vt 0.231828 0.882589
vt 0.429129 0.494585
vt 0.287063 0.933742
vt 0.354486 0.484934
vt 0.355283 0.965532
vt 0.286363 0.452897
vt 0.430458 0.974043
vt 0.231682 0.400618
vt 0.504661 0.959910
vt 0.195005 0.334582
vt 0.570402 0.923296
vt 0.181036 0.260645
vt 0.621478 0.867621
vt 0.191072 0.185770
vt 0.653285 0.799278
vt 0.223179 0.117577
vt 0.662790 0.724401
vt 0.274588 0.062325
vt 0.648188 0.650482
vt 0.340685 0.026185
vt 0.611590 0.584636
vt 0.414704 0.012096
vt 0.555976 0.533610
vt 0.489517 0.022124
vt 0.487542 0.501981
vt 0.557646 0.054420
vt 0.412791 0.492933
vt 0.612476 0.106032
vt 0.357214 0.557532
vt 0.305985 0.586027
vt 0.266040 0.628949
vt 0.241353 0.682142
vt 0.234343 0.740359
vt 0.245639 0.797889
vt 0.274135 0.849131
vt 0.317125 0.888990
vt 0.370284 0.913717
vt 0.428501 0.920738
vt 0.486049 0.909459
vt 0.537280 0.880917
vt 0.577156 0.837927
vt 0.601806 0.784742
vt 0.608788 0.726556
vt 0.597460 0.669077
vt 0.568988 0.617874
vt 0.526080 0.577967
vt 0.472918 0.553294
vt 0.414732 0.546253
vt 0.609396 0.247686
vt 0.598465 0.190092
vt 0.602010 0.305856
vt 0.576979 0.358888
vt 0.536755 0.401555
vt 0.485341 0.429730
vt 0.427737 0.440661
vt 0.369590 0.433181
vt 0.316553 0.408200
vt 0.273877 0.367986
vt 0.245686 0.316566
vt 0.234784 0.258945
vt 0.242260 0.200789
vt 0.267316 0.147795
vt 0.307522 0.105163
vt 0.358921 0.077044
vt 0.416476 0.066112
vt 0.474607 0.073497
vt 0.527608 0.098519
vt 0.570285 0.138694
vt 0.405103 0.688509
vt 0.392007 0.695797
vt 0.381804 0.706775
vt 0.375495 0.720369
vt 0.373699 0.735249
vt 0.376589 0.749959
vt 0.383883 0.763057
vt 0.394866 0.773259
vt 0.408465 0.779572
vt 0.423345 0.781373
vt 0.438054 0.778487
vt 0.451147 0.771197
vt 0.461343 0.760215
vt 0.467646 0.746619
vt 0.469438 0.731740
vt 0.466547 0.717033
vt 0.459255 0.703937
vt 0.448278 0.693734
vt 0.434686 0.687424
vt 0.419809 0.685624
vt 0.470000 0.251933
vt 0.467209 0.237207
vt 0.468103 0.266799
vt 0.461703 0.280350
vt 0.451424 0.291261
vt 0.438277 0.298465
vt 0.423548 0.301253
vt 0.408676 0.299354
vt 0.395120 0.292956
vt 0.384206 0.282682
vt 0.377003 0.269539
vt 0.374217 0.254815
vt 0.376121 0.239951
vt 0.382525 0.226402
vt 0.392804 0.215494
vt 0.405950 0.208292
vt 0.420676 0.205502
vt 0.435541 0.207396
vt 0.449092 0.213793
vt 0.460004 0.224065
vt 0.421570 0.733500
vt 0.422111 0.253380
vt 0.686135 0.249870
vt 0.685429 0.299860
vt 0.686840 0.199880
vt 0.690006 0.149925
vt 0.693948 0.099980
vt 0.694653 0.049990
vt 0.695359 0.000000
vt 0.678719 0.949766
vt 0.676964 0.899741
vt 0.682084 0.849813
vt 0.682790 0.799823
vt 0.679080 0.749770
vt 0.684971 0.699854
vt 0.685676 0.649864
vt 0.686382 0.599874
vt 0.681902 0.549810
vt 0.682608 0.499820
vt 0.687859 0.449894
vt 0.688565 0.399904
vt 0.684724 0.349850
vt 0.711620 0.250230
vt 0.710915 0.300220
vt 0.712326 0.200240
vt 0.710571 0.150215
vt 0.708040 0.100179
vt 0.708746 0.050189
vt 0.695341 1.000000
vt 0.699283 0.950056
vt 0.702449 0.900100
vt 0.698739 0.850048
vt 0.699445 0.800058
vt 0.704565 0.750130
vt 0.700086 0.700067
vt 0.700791 0.650077
vt 0.701497 0.600087
vt 0.707387 0.550170
vt 0.708093 0.500180
vt 0.704252 0.450126
vt 0.704957 0.400136
vt 0.710209 0.350210
vt 0.709451 0.000199
vt 0.681249 0.999801
vn 0.951057 0.309016 0.000000
vn 0.820701 0.571359 0.000000
vn 0.820701 0.571359 0.000000
vn 0.951057 0.309016 0.000000
vn 0.606751 0.794892 0.000000
vn 0.606751 0.794892 0.000000
vn 0.286442 0.958098 0.000000
vn 0.286442 0.958098 0.000000
vn -0.020157 0.999797 0.000000
vn -0.020157 0.999797 0.000000
vn -0.286842 0.957978 0.000000
vn -0.286842 0.957978 0.000000
vn -0.564827 0.825209 0.000000
vn -0.564827 0.825209 0.000000
vn -0.809017 0.587785 0.000000
vn -0.809017 0.587785 0.000000
vn -0.959362 0.282179 0.000000
vn -0.959362 0.282179 0.000000
vn -0.999993 -0.003766 0.000000
vn -0.999993 -0.003766 0.000000
vn -0.957849 -0.287274 0.000000
vn -0.957849 -0.287274 0.000000
vn -0.795418 -0.606061 0.000000
vn -0.795418 -0.606061 0.000000
vn -0.580426 -0.814313 0.000000
vn -0.580426 -0.814313 0.000000
vn -0.335497 -0.942041 0.000000
vn -0.335497 -0.942041 0.000000
vn -0.019460 -0.999811 0.000000
vn -0.019460 -0.999811 0.000000
vn 0.309017 -0.951057 0.000000
vn 0.309017 -0.951057 0.000000
vn 0.603418 -0.797425 0.000000
vn 0.603418 -0.797425 0.000000
vn 0.825141 -0.564927 0.000000
vn 0.825141 -0.564927 0.000000
vn 0.954262 -0.298973 0.000000
vn 0.954262 -0.298973 0.000000
vn 1.000000 -0.000001 0.000000
vn 1.000000 -0.000001 0.000000
vn 0.004892 0.041032 -0.999146
vn -0.000000 0.000000 -1.000000
vn -0.000000 0.000000 -1.000000
vn 0.002250 0.018871 -0.999819
vn 0.034306 0.098487 -0.994547
vn 0.015789 0.045423 -0.998843
vn 0.059513 0.085644 -0.994547
vn 0.027467 0.039472 -0.998843
vn 0.030320 0.028076 -0.999146
vn 0.013945 0.012912 -0.999819
vn -0.042773 0.019763 -0.998889
vn -0.019675 0.009090 -0.999765
vn -0.094589 0.071839 -0.992921
vn -0.043683 0.033118 -0.998496
vn -0.117194 0.085147 -0.989452
vn -0.054299 0.039450 -0.997745
vn -0.097553 0.067760 -0.992921
vn -0.044995 0.031311 -0.998496
vn -0.059216 0.005134 -0.998232
vn -0.027260 0.002361 -0.999626
vn -0.083189 -0.057812 -0.994855
vn -0.038335 -0.026676 -0.998909
vn -0.095669 -0.033321 -0.994855
vn -0.044115 -0.015334 -0.998909
vn -0.035496 -0.026676 -0.999014
vn -0.016328 -0.012274 -0.999791
vn 0.013170 -0.082201 -0.996529
vn 0.006064 -0.037838 -0.999266
vn 0.021391 -0.139508 -0.989990
vn 0.009899 -0.064570 -0.997864
vn 0.049072 -0.151029 -0.987311
vn 0.022773 -0.070087 -0.997281
vn 0.064695 -0.125437 -0.989990
vn 0.029945 -0.058057 -0.997864
vn 0.037662 -0.074243 -0.996529
vn 0.017334 -0.034176 -0.999265
vn 0.009384 -0.020310 -0.999750
vn 0.004315 -0.009338 -0.999947
vn -0.000000 0.000000 -1.000000
vn 0.000000 0.000000 -1.000000
vn -0.000000 0.000000 1.000000
vn 0.004892 0.041032 0.999146
vn 0.002250 0.018871 0.999819
vn -0.000000 0.000000 1.000000
vn 0.034306 0.098487 0.994547
vn 0.015789 0.045423 0.998843
vn 0.059513 0.085644 0.994547
vn 0.027467 0.039472 0.998843
vn 0.030320 0.028076 0.999146
vn 0.013945 0.012912 0.999819
vn -0.042773 0.019763 0.998889
vn -0.019675 0.009090 0.999765
vn -0.094589 0.071839 0.992921
vn -0.043683 0.033118 0.998496
vn -0.117194 0.085147 0.989452
vn -0.054299 0.039450 0.997745
vn -0.097553 0.067760 0.992921
vn -0.044995 0.031311 0.998496
vn -0.059216 0.005134 0.998232
vn -0.027260 0.002361 0.999626
vn -0.083189 -0.057812 0.994855
vn -0.038335 -0.026676 0.998909
vn -0.095669 -0.033321 0.994855
vn -0.044115 -0.015334 0.998909
vn -0.035496 -0.026676 0.999014
vn -0.016328 -0.012274 0.999791
vn 0.013170 -0.082201 0.996529
vn 0.006064 -0.037838 0.999266
vn 0.021391 -0.139508 0.989990
vn 0.009899 -0.064570 0.997864
vn 0.049072 -0.151029 0.987311
vn 0.022773 -0.070087 0.997281
vn 0.064695 -0.125437 0.989990
vn 0.029945 -0.058057 0.997864
vn 0.037662 -0.074243 0.996529
vn 0.017334 -0.034176 0.999266
vn 0.009384 -0.020310 0.999750
vn 0.004315 -0.009338 0.999947
vn 0.000000 0.000000 1.000000
vn -0.000000 0.000000 1.000000
vn 0.000000 0.000000 -1.000000
vn -0.000000 0.000000 -1.000000
vn 0.000000 0.000000 -1.000000
vn 0.000000 0.000000 -1.000000
vn 0.000000 0.000000 -1.000000
vn -0.000000 0.000000 -1.000000
vn 0.000000 0.000000 -1.000000
vn 0.000000 0.000000 -1.000000
vn 0.000000 0.000000 -1.000000
vn 0.000000 0.000000 -1.000000
vn 0.000000 0.000000 -1.000000
vn -0.000000 0.000000 -1.000000
vn -0.000000 0.000000 -1.000000
vn 0.000000 0.000000 -1.000000
vn 0.000000 0.000000 -1.000000
vn 0.000000 0.000000 -1.000000
vn 0.000000 0.000000 -1.000000
vn -0.000000 0.000000 -1.000000
vn -0.000000 0.000000 -1.000000
vn -0.000000 0.000000 -1.000000
vn -0.000000 -0.000000 1.000000
vn -0.000000 -0.000000 1.000000
vn -0.000000 -0.000000 1.000000
vn -0.000000 -0.000000 1.000000
vn -0.000000 -0.000000 1.000000
vn 0.000000 -0.000000 1.000000
vn 0.000000 -0.000000 1.000000
vn 0.000000 -0.000000 1.000000
vn 0.000000 -0.000000 1.000000
vn 0.000000 0.000000 1.000000
vn 0.000000 0.000000 1.000000
vn 0.000000 0.000000 1.000000
vn 0.000000 0.000000 1.000000
vn 0.000000 0.000000 1.000000
vn 0.000000 0.000000 1.000000
vn -0.000000 0.000000 1.000000
vn -0.000000 0.000000 1.000000
vn -0.000000 0.000000 1.000000
vn -0.000000 0.000000 1.000000
vn -0.000000 0.000000 1.000000
vn -0.000000 0.000000 -1.000000
vn 0.000000 -0.000000 1.000000
s 1
g Chitycoin
usemtl lambert2SG
f 1/144/1 2/162/2 22/142/3 21/124/4
f 2/162/2 3/161/5 23/141/6 22/142/3
f 3/161/5 4/160/7 24/140/8 23/141/6
f 4/160/7 5/159/9 25/139/10 24/140/8
f 5/159/9 6/158/11 26/138/12 25/139/10
f 6/158/11 7/157/13 27/137/14 26/138/12
f 7/157/13 8/156/15 28/136/16 27/137/14
f 8/156/15 9/155/17 29/135/18 28/136/16
f 9/155/17 10/154/19 30/134/20 29/135/18
f 10/154/19 11/153/21 31/133/22 30/134/20
f 11/153/21 12/152/23 32/132/24 31/133/22
f 12/152/23 13/151/25 33/131/26 32/132/24
f 13/151/25 14/150/27 34/130/28 33/131/26
f 14/150/27 15/149/29 35/164/30 34/130/28
f 15/163/29 16/148/31 36/128/32 35/129/30
f 16/148/31 17/147/33 37/127/34 36/128/32
f 17/147/33 18/146/35 38/126/36 37/127/34
f 18/146/35 19/145/37 39/125/38 38/126/36
f 19/145/37 20/143/39 40/123/40 39/125/38
f 20/143/39 1/144/1 21/124/4 40/123/40
s 2
f 2/2/41 1/1/42 41/41/43 42/42/44
f 3/5/45 2/2/41 42/42/44 43/43/46
f 4/7/47 3/5/45 43/43/46 44/44/48
f 5/9/49 4/7/47 44/44/48 45/45/50
f 6/11/51 5/9/49 45/45/50 46/46/52
f 7/13/53 6/11/51 46/46/52 47/47/54
f 8/15/55 7/13/53 47/47/54 48/48/56
f 9/17/57 8/15/55 48/48/56 49/49/58
f 10/19/59 9/17/57 49/49/58 50/50/60
f 11/21/61 10/19/59 50/50/60 51/51/62
f 12/23/63 11/21/61 51/51/62 52/52/64
f 13/25/65 12/23/63 52/52/64 53/53/66
f 14/27/67 13/25/65 53/53/66 54/54/68
f 15/29/69 14/27/67 54/54/68 55/55/70
f 16/31/71 15/29/69 55/55/70 56/56/72
f 17/33/73 16/31/71 56/56/72 57/57/74
f 18/35/75 17/33/73 57/57/74 58/58/76
f 19/37/77 18/35/75 58/58/76 59/59/78
f 20/39/79 19/37/77 59/59/78 60/60/80
f 1/1/42 20/39/79 60/60/80 41/41/43
s 3
f 21/4/81 22/3/82 62/61/83 61/62/84
f 22/3/82 23/6/85 63/63/86 62/61/83
f 23/6/85 24/8/87 64/64/88 63/63/86
f 24/8/87 25/10/89 65/65/90 64/64/88
f 25/10/89 26/12/91 66/66/92 65/65/90
f 26/12/91 27/14/93 67/67/94 66/66/92
f 27/14/93 28/16/95 68/68/96 67/67/94
f 28/16/95 29/18/97 69/69/98 68/68/96
f 29/18/97 30/20/99 70/70/100 69/69/98
f 30/20/99 31/22/101 71/71/102 70/70/100
f 31/22/101 32/24/103 72/72/104 71/71/102
f 32/24/103 33/26/105 73/73/106 72/72/104
f 33/26/105 34/28/107 74/74/108 73/73/106
f 34/28/107 35/30/109 75/75/110 74/74/108
f 35/30/109 36/32/111 76/76/112 75/75/110
f 36/32/111 37/34/113 77/77/114 76/76/112
f 37/34/113 38/36/115 78/78/116 77/77/114
f 38/36/115 39/38/117 79/79/118 78/78/116
f 39/38/117 40/40/119 80/80/120 79/79/118
f 40/40/119 21/4/81 61/62/84 80/80/120
s 2
f 42/42/44 41/41/43 81/81/121 82/82/122
f 43/43/46 42/42/44 82/82/122 83/83/123
f 44/44/48 43/43/46 83/83/123 84/84/124
f 45/45/50 44/44/48 84/84/124 85/85/125
f 46/46/52 45/45/50 85/85/125 86/86/126
f 47/47/54 46/46/52 86/86/126 87/87/127
f 48/48/56 47/47/54 87/87/127 88/88/128
f 49/49/58 48/48/56 88/88/128 89/89/129
f 50/50/60 49/49/58 89/89/129 90/90/130
f 51/51/62 50/50/60 90/90/130 91/91/131
f 52/52/64 51/51/62 91/91/131 92/92/132
f 53/53/66 52/52/64 92/92/132 93/93/133
f 54/54/68 53/53/66 93/93/133 94/94/134
f 55/55/70 54/54/68 94/94/134 95/95/135
f 56/56/72 55/55/70 95/95/135 96/96/136
f 57/57/74 56/56/72 96/96/136 97/97/137
f 58/58/76 57/57/74 97/97/137 98/98/138
f 59/59/78 58/58/76 98/98/138 99/99/139
f 60/60/80 59/59/78 99/99/139 100/100/140
f 41/41/43 60/60/80 100/100/140 81/81/121
s 3
f 61/62/84 62/61/83 102/101/141 101/102/142
f 62/61/83 63/63/86 103/103/143 102/101/141
f 63/63/86 64/64/88 104/104/144 103/103/143
f 64/64/88 65/65/90 105/105/145 104/104/144
f 65/65/90 66/66/92 106/106/146 105/105/145
f 66/66/92 67/67/94 107/107/147 106/106/146
f 67/67/94 68/68/96 108/108/148 107/107/147
f 68/68/96 69/69/98 109/109/149 108/108/148
f 69/69/98 70/70/100 110/110/150 109/109/149
f 70/70/100 71/71/102 111/111/151 110/110/150
f 71/71/102 72/72/104 112/112/152 111/111/151
f 72/72/104 73/73/106 113/113/153 112/112/152
f 73/73/106 74/74/108 114/114/154 113/113/153
f 74/74/108 75/75/110 115/115/155 114/114/154
f 75/75/110 76/76/112 116/116/156 115/115/155
f 76/76/112 77/77/114 117/117/157 116/116/156
f 77/77/114 78/78/116 118/118/158 117/117/157
f 78/78/116 79/79/118 119/119/159 118/118/158
f 79/79/118 80/80/120 120/120/160 119/119/159
f 80/80/120 61/62/84 101/102/142 120/120/160
s 2
f 121/121/161 82/82/122 81/81/121 100/100/140
f 121/121/161 84/84/124 83/83/123 82/82/122
f 121/121/161 86/86/126 85/85/125 84/84/124
f 121/121/161 88/88/128 87/87/127 86/86/126
f 121/121/161 90/90/130 89/89/129 88/88/128
f 121/121/161 92/92/132 91/91/131 90/90/130
f 121/121/161 94/94/134 93/93/133 92/92/132
f 121/121/161 96/96/136 95/95/135 94/94/134
f 121/121/161 98/98/138 97/97/137 96/96/136
f 121/121/161 100/100/140 99/99/139 98/98/138
s 3
f 122/122/162 102/101/141 103/103/143 104/104/144
f 122/122/162 104/104/144 105/105/145 106/106/146
f 122/122/162 106/106/146 107/107/147 108/108/148
f 122/122/162 108/108/148 109/109/149 110/110/150
f 122/122/162 110/110/150 111/111/151 112/112/152
f 122/122/162 112/112/152 113/113/153 114/114/154
f 122/122/162 114/114/154 115/115/155 116/116/156
f 122/122/162 116/116/156 117/117/157 118/118/158
f 122/122/162 118/118/158 119/119/159 120/120/160
f 122/122/162 120/120/160 101/102/142 102/101/141
