# This file uses centimeters as units for non-parametric coordinates.

mtllib PalmLeaf.mtl
g default
v 0.006157 0.004156 -0.023644
v -0.036394 -0.011675 -0.002751
v 0.042547 0.003192 0.006726
v -0.060455 0.333979 0.099198
v -0.076198 0.533119 0.144150
v -0.088292 0.676043 0.171298
v -0.101604 0.804980 0.222431
v -0.120519 0.919466 0.338815
v -0.147683 1.015737 0.553432
v -0.179223 1.101459 0.866161
v -0.208333 1.183567 1.224293
v -0.244991 1.254826 1.649694
v -0.287315 1.311772 2.128307
v -0.333472 1.335231 2.651369
v -0.381080 1.315268 3.203735
v -0.425896 1.255850 3.747021
v -0.463492 1.160673 4.234259
v -0.489520 1.027425 4.607030
v -0.502880 0.873061 4.839455
v -0.507669 0.720516 4.972111
v -0.508699 0.587114 5.060438
v -0.510549 0.496022 5.158967
v -0.514660 0.439061 5.284463
v -0.005809 0.367868 0.076705
v -0.009876 0.552135 0.113225
v -0.011710 0.689874 0.132394
v -0.016409 0.815611 0.179604
v -0.028039 0.932428 0.296176
v -0.049860 1.030584 0.517724
v -0.080985 1.119725 0.835504
v -0.117822 1.211215 1.208148
v -0.162007 1.290340 1.644690
v -0.211685 1.345090 2.131975
v -0.265078 1.361502 2.663905
v -0.319743 1.337704 3.224609
v -0.371311 1.276176 3.773397
v -0.415483 1.178452 4.264140
v -0.448035 1.041708 4.639813
v -0.467830 0.882554 4.873869
v -0.478728 0.725684 5.004101
v -0.485601 0.590149 5.086757
v -0.493130 0.501861 5.177513
v -0.502878 0.444253 5.294716
v 0.041972 0.339569 0.111595
v 0.047370 0.534561 0.159367
v 0.053880 0.674962 0.189194
v 0.056965 0.802120 0.242969
v 0.052650 0.915807 0.361952
v 0.037480 1.012301 0.578786
v 0.007671 1.099002 0.892074
v -0.033907 1.182300 1.248573
v -0.083016 1.254663 1.672366
v -0.137801 1.312569 2.149555
v -0.196425 1.336794 2.671420
v -0.256488 1.317337 3.222707
v -0.313767 1.258121 3.764900
v -0.363816 1.162911 4.250843
v -0.402301 1.029498 4.621934
v -0.428131 0.874913 4.852408
v -0.445374 0.722107 4.982964
v -0.458863 0.588415 5.069122
v -0.473176 0.497041 5.165466
v -0.489740 0.439781 5.288781
v -0.256506 0.612687 0.122328
v -0.406064 0.694812 0.132763
v -0.523834 0.807942 0.170917
v -0.621302 0.923720 0.274365
v -0.705961 1.026430 0.478718
v -0.798446 1.120440 0.788398
v -0.897433 1.206871 1.142510
v -0.990547 1.275261 1.558750
v -1.054382 1.327024 2.430903
v -0.535082 1.347871 2.633775
v -1.042738 1.307348 2.701570
v -0.976413 1.256550 3.672615
v -0.950156 1.070378 4.482883
v -0.778069 1.060462 4.571546
v -0.943346 1.020669 4.600151
v -0.744768 0.710328 4.932071
v -0.672868 0.591904 4.978892
v -0.619096 0.534655 5.050337
v -0.562059 0.482237 5.154098
v 0.227984 0.612678 0.182628
v 0.371457 0.687177 0.230962
v 0.478470 0.789655 0.300669
v 0.552804 0.898811 0.431057
v 0.595390 1.002210 0.656935
v 0.625563 1.101974 0.986054
v 0.652784 1.196059 1.358575
v 0.362600 1.334381 1.751936
v 0.587126 1.335730 2.265279
v 0.486355 1.361916 2.783702
v 0.364650 1.342379 3.329783
v 0.195024 1.223335 4.308218
v -0.023203 1.217419 4.291588
v 0.140369 1.197394 4.403174
v -0.100953 0.881652 4.923725
v -0.208468 0.724010 5.025415
v -0.286035 0.601819 5.046342
v -0.349960 0.541718 5.097243
v -0.422333 0.486080 5.178420
v -0.176264 0.596874 0.132489
v -0.264649 0.714475 0.150908
v -0.335927 0.841699 0.195837
v -0.398441 0.960780 0.306788
v -0.457509 1.065547 0.518126
v -0.522868 1.164786 0.830959
v -0.590762 1.261490 1.186313
v -0.658749 1.342407 1.603999
v -0.690891 1.360308 2.079517
v -0.418719 1.348119 2.645789
v -0.726944 1.382916 3.161466
v -0.731422 1.313817 3.709201
v -0.718481 1.208316 4.201319
v -0.711692 1.067663 4.578089
v -0.685797 0.903568 4.816194
v -0.639256 0.740815 4.949989
v -0.599807 0.608216 5.015226
v -0.556515 0.517570 5.101187
v -0.531642 0.456299 5.213796
v -0.461651 0.458260 5.225957
v -0.419068 0.521240 5.125132
v -0.362949 0.614355 5.056514
v -0.313898 0.749135 5.006585
v -0.246558 0.914537 4.892205
v -0.181489 1.080456 4.668577
v -0.110078 1.222267 4.302257
v -0.009480 1.328846 3.824025
v 0.088225 1.396804 3.285397
v 0.182501 1.423917 2.735760
v 0.264510 1.403046 2.215795
v 0.329435 1.341784 1.742395
v 0.347180 1.255213 1.317321
v 0.350584 1.153822 0.952843
v 0.347100 1.050827 0.629281
v 0.330224 0.945032 0.405050
v 0.290881 0.829319 0.277650
v 0.230127 0.708870 0.213625
v 0.147604 0.597597 0.172702
vt 0.648570 1.000000
vt 0.640648 0.995968
vt 0.662371 0.928963
vt 0.674265 0.929935
vt 0.675695 0.887324
vt 0.688779 0.891813
vt 0.481373 0.920371
vt 0.467723 0.928862
vt 0.449363 0.896892
vt 0.465074 0.889657
vt 0.430221 0.862551
vt 0.447633 0.856828
vt 0.408447 0.823897
vt 0.427111 0.818269
vt 0.383392 0.779041
vt 0.402971 0.773043
vt 0.354987 0.726647
vt 0.374750 0.720421
vt 0.325785 0.670978
vt 0.343780 0.663310
vt 0.291244 0.608442
vt 0.308187 0.600235
vt 0.248556 0.542395
vt 0.264294 0.534985
vt 0.204004 0.470300
vt 0.219449 0.463469
vt 0.179615 0.384093
vt 0.191895 0.378815
vt 0.152492 0.300344
vt 0.163402 0.295095
vt 0.124099 0.227580
vt 0.134589 0.222935
vt 0.096071 0.170938
vt 0.105204 0.166574
vt 0.081675 0.122139
vt 0.089035 0.118362
vt 0.071110 0.082423
vt 0.077361 0.079085
vt 0.063044 0.050310
vt 0.068214 0.047339
vt 0.057397 0.025261
vt 0.061491 0.023419
vt 0.052967 0.003164
vt 0.055649 0.002231
vt 0.423777 0.926976
vt 0.387653 0.919951
vt 0.353397 0.901681
vt 0.319058 0.874008
vt 0.283266 0.837143
vt 0.242998 0.791737
vt 0.202275 0.744507
vt 0.160640 0.692203
vt 0.089037 0.584977
vt 0.161161 0.489007
vt 0.052860 0.474457
vt 0.047377 0.339614
vt 0.014756 0.227049
vt 0.034674 0.195823
vt 0.004575 0.181774
vt 0.026489 0.096719
vt 0.030670 0.066651
vt 0.037987 0.047537
vt 0.046210 0.025991
vt 0.606943 0.988639
vt 0.615007 0.918664
vt 0.620178 0.875252
vt 0.518932 0.876029
vt 0.533199 0.841933
vt 0.537031 0.803039
vt 0.532965 0.758725
vt 0.521811 0.707954
vt 0.505641 0.648697
vt 0.487267 0.588996
vt 0.409096 0.539551
vt 0.411387 0.449230
vt 0.368268 0.387873
vt 0.324168 0.321866
vt 0.263871 0.194369
vt 0.220088 0.195061
vt 0.233062 0.161906
vt 0.157329 0.091837
vt 0.129728 0.063471
vt 0.110020 0.042296
vt 0.093873 0.030933
vt 0.075868 0.017526
vt 0.598062 0.989017
vt 0.603783 0.914608
vt 0.606412 0.873902
vt 0.495987 0.913702
vt 0.479802 0.880569
vt 0.462029 0.845436
vt 0.442073 0.805708
vt 0.418662 0.759796
vt 0.390580 0.706936
vt 0.359656 0.651838
vt 0.323939 0.589873
vt 0.279047 0.526049
vt 0.234415 0.455976
vt 0.204373 0.373864
vt 0.174820 0.291078
vt 0.145765 0.219666
vt 0.114968 0.163779
vt 0.097067 0.116673
vt 0.084316 0.078122
vt 0.074115 0.046939
vt 0.065926 0.022809
vt 0.058429 0.001662
vt 0.441152 0.925181
vt 0.412401 0.903453
vt 0.383870 0.876221
vt 0.354752 0.842996
vt 0.323881 0.803044
vt 0.289376 0.755695
vt 0.254209 0.706120
vt 0.215541 0.650829
vt 0.177105 0.586038
vt 0.185314 0.478267
vt 0.113887 0.409850
vt 0.096001 0.327157
vt 0.077077 0.252172
vt 0.049899 0.192060
vt 0.048879 0.139666
vt 0.047801 0.095271
vt 0.046343 0.062814
vt 0.049479 0.036787
vt 0.050545 0.014228
vt 0.507774 0.889518
vt 0.505777 0.853342
vt 0.499017 0.814215
vt 0.487472 0.771163
vt 0.471061 0.722740
vt 0.450034 0.666846
vt 0.427117 0.608622
vt 0.402387 0.543557
vt 0.354631 0.483833
vt 0.310476 0.419254
vt 0.271767 0.347922
vt 0.234438 0.272710
vt 0.201131 0.200977
vt 0.160671 0.151839
vt 0.132898 0.109315
vt 0.110570 0.074562
vt 0.094698 0.047894
vt 0.078585 0.028255
vt 0.066156 0.009886
vn -0.488100 0.216346 -0.845549
vn -0.488100 0.216346 -0.845549
vn -0.479283 0.200629 -0.854422
vn -0.472301 0.188368 -0.861074
vn -0.457721 0.145169 -0.877164
vn -0.457821 0.141938 -0.877641
vn -0.464234 0.212844 -0.859758
vn -0.464173 0.211473 -0.860129
vn -0.435006 0.506628 -0.744377
vn -0.444129 0.460481 -0.768574
vn -0.333725 0.799914 -0.498764
vn -0.359173 0.748238 -0.557795
vn -0.266264 0.907910 -0.323734
vn -0.276816 0.892978 -0.354914
vn -0.273676 0.926271 -0.259082
vn -0.266411 0.926236 -0.266670
vn -0.327534 0.920029 -0.215103
vn -0.318989 0.921497 -0.221561
vn -0.377242 0.911105 -0.166059
vn -0.375171 0.911465 -0.168755
vn -0.385159 0.916660 -0.106710
vn -0.385308 0.916536 -0.107236
vn -0.364723 0.930419 -0.036016
vn -0.363565 0.931016 -0.032101
vn -0.359918 0.932463 0.031179
vn -0.362165 0.931278 0.039464
vn -0.385821 0.917527 0.096362
vn -0.393590 0.912714 0.109728
vn -0.436066 0.881428 0.181469
vn -0.451602 0.867728 0.207615
vn -0.515881 0.798247 0.310915
vn -0.539965 0.766491 0.347749
vn -0.616696 0.638032 0.461088
vn -0.637650 0.595847 0.488230
vn -0.689202 0.465058 0.555627
vn -0.696546 0.444282 0.563416
vn -0.704513 0.434130 0.561421
vn -0.694651 0.473948 0.541141
vn -0.652853 0.609397 0.449910
vn -0.633211 0.661212 0.402297
vn -0.591928 0.741385 0.316180
vn -0.591928 0.741385 0.316180
vn 0.644716 0.225641 -0.730361
vn 0.644716 0.225641 -0.730361
vn 0.645887 0.194509 -0.738238
vn 0.645542 0.205751 -0.735488
vn 0.651494 0.141518 -0.745337
vn 0.650862 0.144308 -0.745355
vn 0.660467 0.206879 -0.721793
vn 0.660496 0.208469 -0.721308
vn 0.630280 0.447000 -0.634774
vn 0.618126 0.491559 -0.613425
vn 0.515937 0.724773 -0.456631
vn 0.478459 0.779553 -0.404194
vn 0.393954 0.873750 -0.285239
vn 0.373274 0.891985 -0.255008
vn 0.355124 0.912299 -0.203954
vn 0.358825 0.913018 -0.194016
vn 0.383447 0.911047 -0.151529
vn 0.390498 0.909738 -0.141026
vn 0.414027 0.905807 -0.089972
vn 0.415374 0.905703 -0.084659
vn 0.398814 0.916527 -0.030412
vn 0.396119 0.917804 -0.026931
vn 0.347201 0.937114 0.035621
vn 0.347054 0.937162 0.035808
vn 0.315538 0.943348 0.102618
vn 0.316118 0.943603 0.098402
vn 0.318762 0.931544 0.174977
vn 0.316998 0.933809 0.165869
vn 0.342761 0.896611 0.280364
vn 0.337817 0.904560 0.260097
vn 0.389250 0.808740 0.440935
vn 0.378544 0.830957 0.407695
vn 0.454153 0.643116 0.616561
vn 0.440950 0.678942 0.587027
vn 0.501458 0.484004 0.717133
vn 0.495469 0.504187 0.707323
vn 0.505110 0.513905 0.693373
vn 0.511087 0.474308 0.716814
vn 0.472990 0.704300 0.529379
vn 0.480743 0.659175 0.578251
vn 0.451065 0.785165 0.424330
vn 0.451065 0.785165 0.424330
vn 0.187207 0.327869 -0.925989
vn 0.199929 0.243123 -0.949168
vn 0.185842 0.249085 -0.950484
vn 0.140032 0.353350 -0.924951
vn 0.185048 0.585948 -0.788938
vn 0.110655 0.601392 -0.791254
vn 0.187737 0.839708 -0.509555
vn 0.079249 0.843222 -0.531691
vn 0.189034 0.932400 -0.308052
vn 0.063759 0.938930 -0.338150
vn 0.200016 0.952584 -0.229299
vn 0.060832 0.963526 -0.260608
vn 0.212222 0.961253 -0.175940
vn 0.054802 0.977412 -0.204113
vn 0.192505 0.975852 -0.103221
vn 0.008926 0.993841 -0.110452
vn 0.154046 0.986642 -0.052980
vn -0.025622 0.998672 -0.044685
vn 0.152446 0.988309 0.002267
vn 0.068395 0.997593 -0.011443
vn 0.175445 0.980049 0.093398
vn -0.096107 0.993385 0.062854
vn 0.165794 0.973187 0.159437
vn -0.081325 0.984482 0.155504
vn 0.144104 0.953657 0.264144
vn -0.074151 0.966895 0.244165
vn 0.105125 0.894128 0.435297
vn 0.027738 0.903888 0.426870
vn 0.041096 0.760727 0.647770
vn -0.136929 0.712652 0.688025
vn -0.074451 0.580134 0.811111
vn -0.213094 0.553707 0.804984
vn -0.247567 0.554202 0.794715
vn -0.286383 0.441230 0.850471
vn -0.370738 0.750051 0.547701
vn -0.332895 0.674577 0.658883
vn -0.391322 0.810187 0.436422
vn -0.380591 0.811639 0.443163
vn 0.041916 0.256619 -0.965603
vn 0.057143 0.344715 -0.936967
vn 0.104403 0.375716 -0.920835
vn 0.055582 0.264176 -0.962872
vn 0.044423 0.601738 -0.797457
vn 0.116547 0.619978 -0.775915
vn -0.013056 0.845614 -0.533635
vn 0.094228 0.845851 -0.525031
vn -0.066561 0.936688 -0.343782
vn 0.060370 0.936265 -0.346070
vn -0.106527 0.956983 -0.269882
vn 0.036004 0.960822 -0.274818
vn -0.143842 0.964390 -0.221950
vn -0.010455 0.974411 -0.224531
vn -0.174671 0.969978 -0.169215
vn -0.054383 0.985447 -0.161046
vn -0.198610 0.974027 -0.108749
vn -0.042381 0.995748 -0.081793
vn -0.217725 0.975474 -0.032364
vn -0.034832 0.999392 -0.001688
vn -0.231952 0.971850 0.041308
vn -0.031892 0.996127 0.081937
vn -0.245509 0.962708 0.113661
vn -0.031032 0.989820 0.138900
vn -0.262754 0.940413 0.215835
vn -0.182044 0.953614 0.239749
vn -0.282845 0.879596 0.382504
vn -0.079197 0.877649 0.472716
vn -0.290317 0.748407 0.596325
vn -0.069371 0.775692 0.627287
vn -0.233963 0.576154 0.783140
vn -0.152484 0.548658 0.822024
vn -0.065688 0.560361 0.825639
vn -0.037396 0.451927 0.891271
vn 0.135166 0.776632 0.615283
vn 0.065495 0.696115 0.714937
vn 0.193975 0.842235 0.503005
vn 0.179603 0.842703 0.507537
vn 0.116977 0.277138 -0.953683
vn 0.068760 0.357139 -0.931517
vn 0.007173 0.599658 -0.800224
vn -0.054062 0.828245 -0.557752
vn -0.090364 0.923811 -0.372033
vn -0.112600 0.949449 -0.293032
vn -0.141538 0.961999 -0.233507
vn -0.164882 0.979349 -0.116999
vn -0.105697 0.994321 -0.012401
vn -0.059284 0.997813 -0.029226
vn -0.168696 0.985483 -0.019114
vn -0.290919 0.946673 0.138481
vn -0.219395 0.937956 0.268521
vn -0.122628 0.887116 0.444958
vn -0.206046 0.732983 0.648291
vn -0.352489 0.514279 0.781837
vn -0.367339 0.294837 0.882119
vn -0.459809 0.505717 0.729949
vn -0.241061 0.818576 0.521367
vn 0.011824 0.834286 0.551206
vn 0.178185 0.538019 0.823885
vn 0.042449 0.309494 0.949953
vn -0.023233 0.495847 0.868099
vn 0.109557 0.762709 0.637395
vn 0.025330 0.907540 0.419201
vn -0.019913 0.962687 0.269883
vn 0.095417 0.978686 0.181847
vn 0.171243 0.978135 0.118015
vn 0.194391 0.980370 0.032963
vn 0.207841 0.977661 -0.031340
vn 0.218372 0.966610 -0.134085
vn 0.214184 0.948748 -0.232385
vn 0.213315 0.937698 -0.274261
vn 0.218028 0.911907 -0.347691
vn 0.227889 0.824501 -0.517943
vn 0.218420 0.620674 -0.753032
vn 0.177540 0.387915 -0.904435
vn 0.125218 0.301769 -0.945122
s 1
g Bush
usemtl initialShadingGroup
f 1/1/1 2/2/2 4/3/3 24/4/4
f 24/4/4 4/3/3 5/5/5 25/6/6
f 25/7/6 5/8/5 6/9/7 26/10/8
f 26/10/8 6/9/7 7/11/9 27/12/10
f 27/12/10 7/11/9 8/13/11 28/14/12
f 28/14/12 8/13/11 9/15/13 29/16/14
f 29/16/14 9/15/13 10/17/15 30/18/16
f 30/18/16 10/17/15 11/19/17 31/20/18
f 31/20/18 11/19/17 12/21/19 32/22/20
f 32/22/20 12/21/19 13/23/21 33/24/22
f 33/24/22 13/23/21 14/25/23 34/26/24
f 34/26/24 14/25/23 15/27/25 35/28/26
f 35/28/26 15/27/25 16/29/27 36/30/28
f 36/30/28 16/29/27 17/31/29 37/32/30
f 37/32/30 17/31/29 18/33/31 38/34/32
f 38/34/32 18/33/31 19/35/33 39/36/34
f 39/36/34 19/35/33 20/37/35 40/38/36
f 40/38/36 20/37/35 21/39/37 41/40/38
f 41/40/38 21/39/37 22/41/39 42/42/40
f 42/42/40 22/41/39 23/43/41 43/44/42
s 2
f 3/64/43 1/86/44 24/87/45 44/65/46
f 44/65/46 24/87/45 25/88/47 45/66/48
f 45/89/48 25/7/47 26/10/49 46/90/50
f 46/90/50 26/10/49 27/12/51 47/91/52
f 47/91/52 27/12/51 28/14/53 48/92/54
f 48/92/54 28/14/53 29/16/55 49/93/56
f 49/93/56 29/16/55 30/18/57 50/94/58
f 50/94/58 30/18/57 31/20/59 51/95/60
f 51/95/60 31/20/59 32/22/61 52/96/62
f 52/96/62 32/22/61 33/24/63 53/97/64
f 53/97/64 33/24/63 34/26/65 54/98/66
f 54/98/66 34/26/65 35/28/67 55/99/68
f 55/99/68 35/28/67 36/30/69 56/100/70
f 56/100/70 36/30/69 37/32/71 57/101/72
f 57/101/72 37/32/71 38/34/73 58/102/74
f 58/102/74 38/34/73 39/36/75 59/103/76
f 59/103/76 39/36/75 40/38/77 60/104/78
f 60/104/78 40/38/77 41/40/79 61/105/80
f 61/105/80 41/40/79 42/42/81 62/106/82
f 62/106/82 42/42/81 43/44/83 63/107/84
s 3
f 6/9/85 5/8/86 102/108/87 103/109/88
f 7/11/89 6/9/85 103/109/88 104/110/90
f 8/13/91 7/11/89 104/110/90 105/111/92
f 9/15/93 8/13/91 105/111/92 106/112/94
f 10/17/95 9/15/93 106/112/94 107/113/96
f 11/19/97 10/17/95 107/113/96 108/114/98
f 12/21/99 11/19/97 108/114/98 109/115/100
f 13/23/101 12/21/99 109/115/100 110/116/102
f 14/25/103 13/23/101 110/116/102 111/117/104
f 15/27/105 14/25/103 111/117/104 112/118/106
f 16/29/107 15/27/105 112/118/106 113/119/108
f 17/31/109 16/29/107 113/119/108 114/120/110
f 18/33/111 17/31/109 114/120/110 115/121/112
f 19/35/113 18/33/111 115/121/112 116/122/114
f 20/37/115 19/35/113 116/122/114 117/123/116
f 21/39/117 20/37/115 117/123/116 118/124/118
f 22/41/119 21/39/117 118/124/118 119/125/120
f 23/43/121 22/41/119 119/125/120 120/126/122
s 4
f 45/89/123 46/90/124 138/128/125 139/127/126
f 46/90/124 47/91/127 137/129/128 138/128/125
f 47/91/127 48/92/129 136/130/130 137/129/128
f 48/92/129 49/93/131 135/131/132 136/130/130
f 49/93/131 50/94/133 134/132/134 135/131/132
f 50/94/133 51/95/135 133/133/136 134/132/134
f 51/95/135 52/96/137 132/134/138 133/133/136
f 52/96/137 53/97/139 131/135/140 132/134/138
f 53/97/139 54/98/141 130/136/142 131/135/140
f 54/98/141 55/99/143 129/137/144 130/136/142
f 55/99/143 56/100/145 128/138/146 129/137/144
f 56/100/145 57/101/147 127/139/148 128/138/146
f 57/101/147 58/102/149 126/140/150 127/139/148
f 58/102/149 59/103/151 125/141/152 126/140/150
f 59/103/151 60/104/153 124/142/154 125/141/152
f 60/104/153 61/105/155 123/143/156 124/142/154
f 61/105/155 62/106/157 122/144/158 123/143/156
f 62/106/157 63/107/159 121/145/160 122/144/158
s 3
f 103/109/88 102/108/87 64/45/161 65/46/162
f 104/110/90 103/109/88 65/46/162 66/47/163
f 105/111/92 104/110/90 66/47/163 67/48/164
f 106/112/94 105/111/92 67/48/164 68/49/165
f 107/113/96 106/112/94 68/49/165 69/50/166
f 108/114/98 107/113/96 69/50/166 70/51/167
f 109/115/100 108/114/98 70/51/167 71/52/168
f 110/116/102 109/115/100 71/52/168 72/53/169
f 111/117/104 110/116/102 72/53/169 73/54/170
f 112/118/106 111/117/104 73/54/170 74/55/171
f 113/119/108 112/118/106 74/55/171 75/56/172
f 114/120/110 113/119/108 75/56/172 76/57/173
f 115/121/112 114/120/110 76/57/173 77/58/174
f 116/122/114 115/121/112 77/58/174 78/59/175
f 117/123/116 116/122/114 78/59/175 79/60/176
f 118/124/118 117/123/116 79/60/176 80/61/177
f 119/125/120 118/124/118 80/61/177 81/62/178
f 120/126/122 119/125/120 81/62/178 82/63/179
s 4
f 122/144/158 121/145/160 101/85/180 100/84/181
f 123/143/156 122/144/158 100/84/181 99/83/182
f 124/142/154 123/143/156 99/83/182 98/82/183
f 125/141/152 124/142/154 98/82/183 97/81/184
f 126/140/150 125/141/152 97/81/184 96/80/185
f 127/139/148 126/140/150 96/80/185 95/79/186
f 128/138/146 127/139/148 95/79/186 94/78/187
f 129/137/144 128/138/146 94/78/187 93/77/188
f 130/136/142 129/137/144 93/77/188 92/76/189
f 131/135/140 130/136/142 92/76/189 91/75/190
f 132/134/138 131/135/140 91/75/190 90/74/191
f 133/133/136 132/134/138 90/74/191 89/73/192
f 134/132/134 133/133/136 89/73/192 88/72/193
f 135/131/132 134/132/134 88/72/193 87/71/194
f 136/130/130 135/131/132 87/71/194 86/70/195
f 137/129/128 136/130/130 86/70/195 85/69/196
f 138/128/125 137/129/128 85/69/196 84/68/197
f 139/127/126 138/128/125 84/68/197 83/67/198
